<svg xmlns="http://www.w3.org/2000/svg" xmlns:xlink="http://www.w3.org/1999/xlink" version="1.1" x="0px" y="0px" viewBox="0 0 100 125" style="enable-background:new 0 0 100 100;" xml:space="preserve"><g><path d="M80.1,67.6v-2.1h-1.9v2.1c0,0.3-0.2,0.5-0.5,0.5h-2.8V70h2.8c0.3,0,0.5,0.2,0.5,0.5v6h1.9v-6c0-0.3,0.2-0.5,0.5-0.5h2.8   v-1.9h-2.8C80.4,68.1,80.1,67.9,80.1,67.6z"/><path d="M98,74.2h-8.9V64.1c0-0.2-0.1-0.4-0.3-0.5L67.6,53.5c-0.2-0.1-0.3-0.1-0.5,0c-0.1,0.1-0.2,0.3-0.2,0.4v41.4   c0,0.3,0.2,0.5,0.5,0.5h8c0.3,0,0.5-0.2,0.5-0.5v-6.7l3.2-5.3l3.2,5.3v6.7c0,0.3,0.2,0.5,0.5,0.5H98c0.3,0,0.5-0.2,0.5-0.5V74.7   C98.5,74.4,98.3,74.2,98,74.2z M84.4,70.5c0,0.3-0.2,0.5-0.5,0.5h-2.8v6c0,0.3-0.2,0.5-0.5,0.5h-2.9c-0.3,0-0.5-0.2-0.5-0.5v-6   h-2.8c-0.3,0-0.5-0.2-0.5-0.5v-2.9c0-0.3,0.2-0.5,0.5-0.5h2.8V65c0-0.3,0.2-0.5,0.5-0.5h2.9c0.3,0,0.5,0.2,0.5,0.5v2.1h2.8   c0.3,0,0.5,0.2,0.5,0.5V70.5z"/></g><g><path d="M21.8,67.6v-2.1h-1.9v2.1c0,0.3-0.2,0.5-0.5,0.5h-2.8V70h2.8c0.3,0,0.5,0.2,0.5,0.5v6h1.9v-6c0-0.3,0.2-0.5,0.5-0.5h2.8   v-1.9h-2.8C22,68.1,21.8,67.9,21.8,67.6z"/><path d="M32.9,53.5c-0.1-0.1-0.3-0.1-0.5,0L11.2,63.7c-0.2,0.1-0.3,0.3-0.3,0.5v10.1H2c-0.3,0-0.5,0.2-0.5,0.5v20.7   c0,0.3,0.2,0.5,0.5,0.5h15.1c0.3,0,0.5-0.2,0.5-0.5v-6.7l3.2-5.3l3.2,5.3v6.7c0,0.3,0.2,0.5,0.5,0.5h8c0.3,0,0.5-0.2,0.5-0.5V53.9   C33.1,53.7,33,53.6,32.9,53.5z M26.1,70.5c0,0.3-0.2,0.5-0.5,0.5h-2.8v6c0,0.3-0.2,0.5-0.5,0.5h-2.9c-0.3,0-0.5-0.2-0.5-0.5v-6   h-2.8c-0.3,0-0.5-0.2-0.5-0.5v-2.9c0-0.3,0.2-0.5,0.5-0.5h2.8V65c0-0.3,0.2-0.5,0.5-0.5h2.9c0.3,0,0.5,0.2,0.5,0.5v2.1h2.8   c0.3,0,0.5,0.2,0.5,0.5V70.5z"/></g><g><path d="M51.3,50.5v-2.7h-2.5v2.7c0,0.3-0.2,0.5-0.5,0.5h-3.5v2.5h3.5c0.3,0,0.5,0.2,0.5,0.5v7.3h2.5V54c0-0.3,0.2-0.5,0.5-0.5h3.5   V51h-3.5C51.5,51,51.3,50.8,51.3,50.5z"/><path d="M65.3,52.7L50.4,30c-0.2-0.3-0.7-0.3-0.8,0L34.7,52.7c-0.1,0.1-0.1,0.2-0.1,0.3v42.4c0,0.3,0.2,0.5,0.5,0.5h11.1   c0.3,0,0.5-0.2,0.5-0.5V80.2l3.2-5.3l3.2,5.3v15.1c0,0.3,0.2,0.5,0.5,0.5h11.1c0.3,0,0.5-0.2,0.5-0.5V52.9   C65.3,52.8,65.3,52.7,65.3,52.7z M56.2,54c0,0.3-0.2,0.5-0.5,0.5h-3.5v7.3c0,0.3-0.2,0.5-0.5,0.5h-3.5c-0.3,0-0.5-0.2-0.5-0.5v-7.3   h-3.5c-0.3,0-0.5-0.2-0.5-0.5v-3.5c0-0.3,0.2-0.5,0.5-0.5h3.5v-2.7c0-0.3,0.2-0.5,0.5-0.5h3.5c0.3,0,0.5,0.2,0.5,0.5V50h3.5   c0.3,0,0.5,0.2,0.5,0.5V54z"/></g><g><path d="M91.6,61.9c-0.1,0-0.1,0-0.2,0L67.3,50.4c-0.1,0-0.2-0.1-0.2-0.2L50,24.1L32.9,50.2c-0.1,0.1-0.1,0.1-0.2,0.2L8.6,61.8   c-0.2,0.1-0.3,0.1-0.5,0c-0.1-0.1-0.2-0.3-0.2-0.4v-4.1c0-0.2,0.1-0.4,0.3-0.5l21.4-10.2L48.4,18v-7.1h-4c-0.3,0-0.5-0.2-0.5-0.5   V8.1c0-0.3,0.2-0.5,0.5-0.5h4v-3c0-0.3,0.2-0.5,0.5-0.5h2.2c0.3,0,0.5,0.2,0.5,0.5v3h4c0.3,0,0.5,0.2,0.5,0.5v2.2   c0,0.3-0.2,0.5-0.5,0.5h-4V18l18.7,28.7l21.4,10.2c0.2,0.1,0.3,0.3,0.3,0.5v4.1c0,0.2-0.1,0.3-0.2,0.4   C91.8,61.9,91.7,61.9,91.6,61.9z"/></g><text x="0" y="115" fill="#000000" font-size="5px" font-weight="bold" font-family="'Helvetica Neue', Helvetica, Arial-Unicode, Arial, Sans-serif">Created by Px icon</text><text x="0" y="120" fill="#000000" font-size="5px" font-weight="bold" font-family="'Helvetica Neue', Helvetica, Arial-Unicode, Arial, Sans-serif">from the Noun Project</text></svg>